# xmcd
#
# Track frame offsets:
#  150
#  12817
#  26873
#  38448
#  51830
#  65350
#  76884
#  89344
#  103265
#  115660
#  127926
#  139650
#  150562
#  161161
#  171882
#  184396
#  196021
#  208167
#  221917
#  236512
#  249084
#  262526
#  276584
#  290102
#  304807
#
# Disc length: 4247 seconds
#
# Revision: 0
# Processed by: cddbd v1.5.2PL0 Copyright (c) Steve Scherf et al.
# Submitted via: AltoMP3_Maker 3.0
#
DISCID=60109519
DTITLE=Ernest Tubb - Texas Troubador - The Early Years [CDB) 1941-1944
DYEAR=1900
DGENRE=
TTITLE0=When the World Has Turned You Down
TTITLE1=Our Baby's Book
TTITLE2=I'll Always Be Glad to Take You Back
TTITLE3=Mean Mama Blues
TTITLE4=I Wonder Why You Said Goodbye
TTITLE5=I Ain't Goin' Honky Tonkin' Anymore
TTITLE6=I Hate to See YOu Go
TTITLE7=Time after Time
TTITLE8=First Year Blues
TTITLE9=There's Nothing More to Say
TTITLE10=Wasting My Life Away
TTITLE11=You May Have Your Picture
TTITLE12=That Same Old Story
TTITLE13=Try Me One More Time
TTITLE14=You Nearly Lose Your Mind
TTITLE15=That's When It's Comin' Home to You
TTITLE16=I'm Wondering How
TTITLE17=Tomorrow Never Comes
TTITLE18=Soldier's Last Letter
TTITLE19=Careless Darlin'
TTITLE20=Yesterday's Tears
TTITLE21=Those Simple Things Are Worth a Million Now
TTITLE22=Answer to "Walking the Floor over You"
TTITLE23=You Won't Ever Forget Me
TTITLE24=Keep My Mem'ry in Your Heart
EXTD=
EXTT0=
EXTT1=
EXTT2=
EXTT3=
EXTT4=
EXTT5=
EXTT6=
EXTT7=
EXTT8=
EXTT9=
EXTT10=
EXTT11=
EXTT12=
EXTT13=
EXTT14=
EXTT15=
EXTT16=
EXTT17=
EXTT18=
EXTT19=
EXTT20=
EXTT21=
EXTT22=
EXTT23=
EXTT24=
PLAYORDER=
